<svg width="74" height="66" viewBox="0 0 74 66" fill="none" xmlns="http://www.w3.org/2000/svg">
<path d="M52.4167 16.5C55.8224 16.5 58.5833 14.0376 58.5833 11C58.5833 7.96243 55.8224 5.5 52.4167 5.5C49.0109 5.5 46.25 7.96243 46.25 11C46.25 14.0376 49.0109 16.5 52.4167 16.5Z" fill="#F8F0E7"/>
<path d="M48.6458 30.1648C49.3536 31.1055 50.3688 31.8291 51.5537 32.2375C52.7386 32.6458 54.0356 32.7191 55.2687 32.4473L65.4931 30.1675L64.0038 24.8325L53.7795 27.1123L49.5276 21.428C48.6192 20.2141 47.2093 19.3699 45.6056 19.0795L33.7471 16.962C32.4205 16.7246 31.0431 16.8833 29.8276 17.4136C28.6122 17.9439 27.6264 18.8164 27.0223 19.8963L21.9102 29.0153L27.4263 31.4765L32.5384 22.3548L38.6033 23.4383L22.9215 46.75H9.25V52.25H22.9215C25.0737 52.25 27.0994 51.227 28.2094 49.5798L34.1233 40.7908L50.061 43.6343L55.6603 58.619L61.5063 56.8783L55.9101 41.8963C55.5647 40.9765 54.9536 40.1541 54.1384 39.512C53.3232 38.8699 52.3327 38.4307 51.2666 38.2388L41.8963 36.5695L47.36 28.446L48.6458 30.1648Z" fill="#F8F0E7"/>
</svg>
