<svg width="111" height="66" viewBox="0 0 111 66" fill="none" xmlns="http://www.w3.org/2000/svg">
<path d="M89.4167 16.5C92.8224 16.5 95.5833 14.0376 95.5833 11C95.5833 7.96243 92.8224 5.5 89.4167 5.5C86.0109 5.5 83.25 7.96243 83.25 11C83.25 14.0376 86.0109 16.5 89.4167 16.5Z" fill="#F8F0E7"/>
<path d="M85.6458 30.1648C86.3536 31.1055 87.3688 31.8291 88.5537 32.2375C89.7386 32.6458 91.0356 32.7191 92.2687 32.4473L102.493 30.1675L101.004 24.8325L90.7795 27.1123L86.5276 21.428C85.6192 20.2141 84.2093 19.3699 82.6056 19.0795L70.7471 16.962C69.4205 16.7246 68.0431 16.8833 66.8276 17.4136C65.6122 17.9439 64.6264 18.8164 64.0223 19.8963L58.9102 29.0153L64.4263 31.4765L69.5384 22.3548L75.6033 23.4383L59.9215 46.75H46.25V52.25H59.9215C62.0737 52.25 64.0994 51.227 65.2094 49.5798L71.1233 40.7908L87.061 43.6343L92.6603 58.619L98.5063 56.8783L92.9101 41.8963C92.5647 40.9765 91.9536 40.1541 91.1384 39.512C90.3232 38.8699 89.3327 38.4307 88.2666 38.2388L78.8963 36.5695L84.36 28.446L85.6458 30.1648Z" fill="#F8F0E7"/>
<g clip-path="url(#clip0_27_6)">
<path d="M0.000839233 11.7997L0.000839233 16.5985L1.76078 16.6036L3.5224 16.6087L4.82308 19.849C5.5941 21.7668 9.12739 30.4217 13.477 41.0399L20.8302 58.9906L29.1673 58.9906L33.961 47.2844C36.5993 40.8443 40.4929 31.3089 42.6166 26.0917L46.475 16.6087L48.2367 16.6036L50 16.5985L50 6.99909L40.4611 6.99909L30.9222 6.99909L30.9222 11.7997L30.9222 16.5985H32.7089C34.0264 16.5985 34.4957 16.6053 34.4957 16.6188C34.4957 16.6306 32.724 20.8728 30.5585 26.0462C26.3329 36.1483 25.0222 39.2233 24.9803 39.1423C24.9685 39.1204 23.403 35.428 21.5006 30.9361C18.5976 24.0828 15.542 16.7908 15.5101 16.639L15.5017 16.5985L19.0786 16.5985L19.0786 6.99909L9.53972 6.99909L0.000839233 6.99909L0.000839233 11.7997Z" fill="#F8F0E7"/>
</g>
<defs>
<clipPath id="clip0_27_6">
<rect width="50" height="52" fill="white" transform="translate(0 7)"/>
</clipPath>
</defs>
</svg>
