<svg width="50" height="52" viewBox="0 0 50 52" fill="none" xmlns="http://www.w3.org/2000/svg">
<path d="M0.000839233 4.79966L0.000839233 9.59854L1.76078 9.6036L3.5224 9.60866L4.82308 12.849C5.5941 14.7668 9.12739 23.4217 13.477 34.0399L20.8302 51.9906L29.1673 51.9906L33.961 40.2844C36.5993 33.8443 40.4929 24.3089 42.6166 19.0917L46.475 9.60866L48.2367 9.6036L50 9.59854L50 -0.000907898L40.4611 -0.000907898L30.9222 -0.000907898L30.9222 4.79966L30.9222 9.59854H32.7089C34.0264 9.59854 34.4957 9.60528 34.4957 9.61878C34.4957 9.63058 32.724 13.8728 30.5585 19.0462C26.3329 29.1483 25.0222 32.2233 24.9803 32.1423C24.9685 32.1204 23.403 28.428 21.5006 23.9361C18.5976 17.0828 15.542 9.79083 15.5101 9.63902L15.5017 9.59854L19.0786 9.59854L19.0786 -0.000907898L9.53972 -0.000907898L0.000839233 -0.000907898L0.000839233 4.79966Z" fill="#F8F0E7"/>
</svg>
